<svg xmlns="http://www.w3.org/2000/svg" width="165.007" height="165" viewBox="0 0 165.007 165">
  <g id="OSBA-logo_header" transform="translate(-77.997 -18)">
    <circle id="Ellipse_30" data-name="Ellipse 30" cx="82.5" cy="82.5" r="82.5" transform="translate(78 18)" fill="#036"/>
    <path id="logo" d="M82.5,165a82.5,82.5,0,1,1,82.509-82.5A82.591,82.591,0,0,1,82.5,165m0-161.228A78.728,78.728,0,1,0,161.237,82.5,78.821,78.821,0,0,0,82.5,3.773M42.205,75.427l5.5-2.829L46.327,70.17H30.478L29.11,72.6l5.5,2.829,3.8,23.37ZM37.6,51.411c.887,2.183-.132,4.147-2.43,6.026-2.829,2.329-3.665,4.689-3.629,6.27.077,3.677,3.794,5.292,4.723,5.737s.611.726.611.726,2.362.562,1.294,0c-.869-.449-1.777-2.5-1.743-3.959.131-4.732,3.348-4.809,3.435-9.505a7.389,7.389,0,0,0-1.98-5.414c-.243-.244-.381-.13-.281.12M38.2,66.161c.144,1.493,1.092,3.261,2.828,3.283a3.563,3.563,0,0,0,3.522-3.8c-.125-2.891-2.42-5.845-2.692-6.206-.5-.687-.791-.476-.912.138C40.405,62.527,38.3,63.1,38.2,66.117Zm70.232,4.009c-2.871,0-4.6,2.267-4.6,5.384s1.732,5.372,4.6,5.372,4.6-2.262,4.6-5.372-1.729-5.384-4.6-5.384M82.042,89.042c-2.871,0-4.608,2.261-4.608,5.374s1.736,5.38,4.608,5.38,4.608-2.265,4.608-5.38-1.741-5.374-4.608-5.374m39.084-26.978c2.877,0,4.609-2.274,4.609-5.382S124,51.3,121.126,51.3s-4.6,2.268-4.6,5.38,1.728,5.382,4.6,5.382m.41,27.27H118.2V99.5h3.457c2.325,0,3.834-1.82,3.834-5.159s-1.529-5-3.959-5M83.927,51.6H79.475v4.495h4.14c1.307,0,2.693-.336,2.693-2.285,0-2.042-1.5-2.21-2.381-2.21M94.888,89.779h-.036l-2.11,5.816h4.1Zm-64.5,18.867-2.11,5.814h4.1l-1.957-5.814ZM69.246,62.064c2.876,0,4.6-2.274,4.6-5.382s-1.719-5.38-4.6-5.38-4.608,2.268-4.608,5.38,1.731,5.382,4.608,5.382m2.534,29.2c0-1.235-.755-1.93-2.74-1.93H65.8V93.4h3.223c1.712,0,2.759-.513,2.759-2.138M82.456,7.132A75.969,75.969,0,1,0,158.432,83.1,75.967,75.967,0,0,0,82.456,7.132m46.556,42.942h2.118l6.611,10.68h.029V50.074h1.739V63.3h-2l-6.726-10.69h-.039V63.3h-1.727ZM122.924,82.51c-4.937,0-6.447-4.1-6.447-6.957s1.51-6.971,6.447-6.971,6.443,4.112,6.443,6.971-1.512,6.957-6.443,6.957m4.413,11.729c0,2.96-1.293,6.794-5.631,6.794h-5.292V87.8h5.359c3.446,0,5.563,2.618,5.563,6.439m-6.211-44.516c4.932,0,6.449,4.1,6.449,6.958s-1.517,6.957-6.449,6.957-6.448-4.1-6.448-6.957,1.512-6.958,6.448-6.958m-6.249,25.83c0,2.853-1.51,6.957-6.443,6.957s-6.444-4.1-6.444-6.957,1.51-6.971,6.444-6.971,6.443,4.112,6.443,6.971m-7.8-25.83c2.461,0,5.211,1.4,5.6,4.358h-1.733a3.688,3.688,0,0,0-3.963-2.771c-2.374,0-4.32,1.885-4.32,5.358,0,2.686.88,5.447,4.395,5.447a4.206,4.206,0,0,0,2.711-.851,4.051,4.051,0,0,0,1.457-3.51h-4.127v-1.53h5.8V63.3H111.73l-.424-1.716a5.378,5.378,0,0,1-4.364,2.055,5.317,5.317,0,0,1-4.055-1.488,7.089,7.089,0,0,1-2.084-5.582c0-3.225,1.955-6.845,6.27-6.845m-16.788.35h9.632v1.581H92.07v4.051h7.239v1.581H92.07v4.421h7.978V63.3H90.284Zm-.223,18.859h1.786V74.41h6.906V68.933h1.788V82.161H98.753V75.992H91.847v6.169H90.061ZM82.647,80.926c1.162,0,3.173-.55,3.779-3.623h1.728a5.581,5.581,0,0,1-5.782,5.207c-3,0-5.942-1.948-5.942-7.031,0-4.071,2.315-6.9,6.168-6.9,3.41,0,5.17,2.126,5.434,4.335H86.294a3.445,3.445,0,0,0-3.7-2.748c-2.4,0-4.328,1.774-4.328,5.253,0,3.109,1.1,5.5,4.377,5.5m-13.4-31.2c4.929,0,6.442,4.1,6.442,6.958s-1.513,6.957-6.442,6.957c-4.946,0-6.457-4.1-6.457-6.957s1.512-6.958,6.457-6.958m.717,26.694-2.7-.627a3.186,3.186,0,0,1-2.824-3.118c0-2.059,1.348-4.09,4.555-4.09,4.618,0,5.075,2.768,5.157,4.222H72.47c-.1-2.048-1.789-2.685-3.272-2.685-1.125,0-3.025.314-3.025,2.317,0,1.119.787,1.493,1.561,1.673l3.78.868a3.436,3.436,0,0,1,3,3.535c0,3.136-2.912,4-5.171,4-2.461,0-3.41-.737-4-1.275A4.061,4.061,0,0,1,64,77.888h1.676c0,2.4,1.954,3.094,3.645,3.094,1.285,0,3.46-.331,3.46-2.231,0-1.374-.637-1.818-2.818-2.333M24.124,54.02A3.883,3.883,0,0,1,28,50.137h20.8a3.881,3.881,0,0,1,3.875,3.884V96.711a3.878,3.878,0,0,1-3.875,3.884H28a3.88,3.88,0,0,1-3.879-3.884ZM34.337,119.9l-1.31-3.853h-5.31L26.343,119.9H24.494l4.973-13.222H31.5L36.284,119.9Zm7.374.354c-2.447,0-3.4-.737-4-1.275a4.085,4.085,0,0,1-1.34-3.356h1.671c0,2.4,1.957,3.1,3.651,3.1,1.286,0,3.464-.331,3.464-2.229,0-1.385-.65-1.826-2.822-2.341l-2.7-.618a3.206,3.206,0,0,1-2.817-3.116c0-2.069,1.343-4.094,4.548-4.094,4.626,0,5.085,2.762,5.15,4.217H44.842c-.088-2.043-1.787-2.685-3.273-2.685-1.123,0-3.022.313-3.022,2.318,0,1.123.786,1.493,1.567,1.672l3.771.869a3.44,3.44,0,0,1,3,3.542c0,3.13-2.908,4-5.178,4m11.681,0c-2.443,0-3.405-.737-3.991-1.275a4.075,4.075,0,0,1-1.351-3.356h1.674c0,2.4,1.964,3.1,3.65,3.1,1.292,0,3.464-.331,3.464-2.229,0-1.385-.646-1.826-2.818-2.341l-2.707-.618a3.2,3.2,0,0,1-2.818-3.116c0-2.069,1.344-4.094,4.546-4.094,4.628,0,5.09,2.762,5.165,4.217h-1.68c-.093-2.043-1.785-2.685-3.278-2.685-1.124,0-3.022.313-3.022,2.318,0,1.123.8,1.493,1.568,1.672l3.776.869a3.434,3.434,0,0,1,3,3.542c0,3.13-2.908,4-5.176,4m12.707,0c-4.94,0-6.447-4.11-6.447-6.97s1.507-6.96,6.447-6.96,6.447,4.111,6.447,6.96-1.513,6.97-6.447,6.97m3.6-19.219h-5.69V87.807h5.821c2.468,0,3.738,1.527,3.738,3.336A2.916,2.916,0,0,1,71.8,93.9a3.18,3.18,0,0,1,2.391,3.224c0,2.123-1.562,3.908-4.49,3.908m9.523,19.219c-3,0-5.944-1.955-5.944-7.04,0-4.073,2.321-6.9,6.17-6.9,3.407,0,5.176,2.125,5.431,4.336H83.148a3.431,3.431,0,0,0-3.7-2.744c-2.4,0-4.328,1.768-4.328,5.247,0,3.11,1.1,5.5,4.381,5.5,1.157,0,3.168-.551,3.78-3.622h1.73c-.744,4.989-4.789,5.215-5.79,5.215m2.817-18.868c-4.933,0-6.442-4.108-6.442-6.967s1.508-6.961,6.442-6.961,6.441,4.111,6.441,6.961-1.508,6.967-6.441,6.967M88.56,119.9H86.77V106.676h1.79Zm.1-56.6H86.469a16.569,16.569,0,0,1-.314-3.322c0-1.087-.218-2.353-2.354-2.353H79.475V63.3h-1.79V50.074H83.8c2.172,0,4.342.75,4.342,3.546a3.249,3.249,0,0,1-1.835,3.172c.747.313,1.51.645,1.585,2.488l.111,2.4c.015.737.1,1.011.656,1.325Zm5.273,24.5h2.024l4.789,13.233H98.791l-1.306-3.855h-5.3L90.8,101.033H88.962Zm5.756,32.1-1.3-3.853h-5.3L91.7,119.9H89.856l4.976-13.222h2.03l4.783,13.222ZM110.2,108.253h-4.469V119.9h-1.787V108.253H99.472v-1.578H110.2Zm3.069,11.644H111.48V106.676h1.794Zm.432-18.864h-2.2a16.424,16.424,0,0,1-.309-3.323c0-1.085-.226-2.352-2.361-2.352h-4.32v5.675h-1.793V87.8h6.113c2.178,0,4.348.756,4.348,3.56a3.243,3.243,0,0,1-1.839,3.164c.756.315,1.512.645,1.586,2.488l.108,2.395c.018.738.112,1.013.663,1.327Zm7.419,19.219c-4.936,0-6.448-4.11-6.448-6.97s1.512-6.96,6.448-6.96,6.449,4.111,6.449,6.96-1.517,6.97-6.449,6.97m18.383-.354h-2l-6.726-10.682h-.039V119.9h-1.727V106.675h2.118l6.611,10.677h.029V106.675h1.739Zm-4.7-18.514c-2.448,0-3.4-.737-4-1.274a4.075,4.075,0,0,1-1.339-3.355h1.672c0,2.392,1.953,3.095,3.649,3.095,1.289,0,3.459-.333,3.459-2.226,0-1.38-.636-1.828-2.818-2.335l-2.7-.632a3.182,3.182,0,0,1-2.819-3.108c0-2.069,1.345-4.093,4.549-4.093,4.62,0,5.081,2.762,5.157,4.215h-1.675c-.092-2.043-1.789-2.689-3.279-2.689-1.12,0-3.021.319-3.021,2.323,0,1.123.792,1.493,1.561,1.674l3.779.868a3.441,3.441,0,0,1,3,3.534c0,3.136-2.917,4-5.177,4m-2.924-19.222V68.933h1.789V80.572h6.707v1.589ZM69.316,94.856H65.8V99.5h3.81c1.863,0,2.8-.935,2.8-2.41,0-1.859-1.635-2.23-3.089-2.23M66.1,107.909c-2.872,0-4.609,2.261-4.609,5.372s1.737,5.381,4.609,5.381,4.6-2.266,4.6-5.381-1.732-5.372-4.6-5.372m42.872-18.575h-4.45v4.491h4.138c1.313,0,2.691-.331,2.691-2.278,0-2.051-1.493-2.214-2.379-2.214m12.155,18.575c-2.876,0-4.6,2.261-4.6,5.372s1.728,5.381,4.6,5.381,4.609-2.266,4.609-5.381-1.731-5.372-4.609-5.372m1.8-37.739c-2.875,0-4.605,2.267-4.605,5.384s1.731,5.372,4.605,5.372,4.6-2.262,4.6-5.372-1.729-5.384-4.6-5.384M95.751,108.646l-2.118,5.814h4.112l-1.958-5.814Z" transform="translate(77.996 17.999)" fill="#fff"/>
  </g>
</svg>
